<svg xmlns="http://www.w3.org/2000/svg" xmlns:xlink="http://www.w3.org/1999/xlink" width="185" zoomAndPan="magnify" viewBox="0 0 138.75 44.999999" height="60" preserveAspectRatio="xMidYMid meet" version="1.0"><defs><g/><clipPath id="755388526e"><path d="M 26 0.0390625 L 28 0.0390625 L 28 1 L 26 1 Z M 26 0.0390625 " clip-rule="nonzero"/></clipPath><clipPath id="5fac1d27b6"><path d="M 52 0.0390625 L 54 0.0390625 L 54 1 L 52 1 Z M 52 0.0390625 " clip-rule="nonzero"/></clipPath><clipPath id="35880457e7"><path d="M 67 0.0390625 L 70 0.0390625 L 70 8 L 67 8 Z M 67 0.0390625 " clip-rule="nonzero"/></clipPath><clipPath id="bd7556376e"><path d="M 107 0.0390625 L 110 0.0390625 L 110 3 L 107 3 Z M 107 0.0390625 " clip-rule="nonzero"/></clipPath><clipPath id="0783631637"><path d="M 23.089844 15 L 29 15 L 29 23 L 23.089844 23 Z M 23.089844 15 " clip-rule="nonzero"/></clipPath><clipPath id="72cf0ab7cf"><path d="M 113 42 L 115.339844 42 L 115.339844 44 L 113 44 Z M 113 42 " clip-rule="nonzero"/></clipPath><clipPath id="0ce9a12005"><path d="M 38 43 L 40 43 L 40 44.957031 L 38 44.957031 Z M 38 43 " clip-rule="nonzero"/></clipPath><clipPath id="4c35fa9c3f"><path d="M 111 43 L 114 43 L 114 44.957031 L 111 44.957031 Z M 111 43 " clip-rule="nonzero"/></clipPath><clipPath id="64f04fd12a"><path d="M 108 43 L 110 43 L 110 44.957031 L 108 44.957031 Z M 108 43 " clip-rule="nonzero"/></clipPath><clipPath id="89f7699f81"><path d="M 64 0.0390625 L 76 0.0390625 L 76 1 L 64 1 Z M 64 0.0390625 " clip-rule="nonzero"/></clipPath></defs><g clip-path="url(#755388526e)"><path fill="#006acb" d="M 26.8125 -0.855469 C 27.390625 -0.875 27.636719 -0.554688 27.730469 -0.0898438 C 27.285156 0.277344 26.574219 -0.0664062 26.8125 -0.855469 Z M 26.8125 -0.855469 " fill-opacity="1" fill-rule="evenodd"/></g><g clip-path="url(#5fac1d27b6)"><path fill="#006acb" d="M 53.804688 0.0664062 C 53.765625 0.761719 52.503906 1.1875 52.273438 0.371094 C 52.441406 -0.242188 53.570312 -0.691406 53.804688 0.0664062 Z M 53.804688 0.0664062 " fill-opacity="1" fill-rule="evenodd"/></g><g clip-path="url(#35880457e7)"><path fill="#006acb" d="M 68.835938 0.832031 C 69.082031 0.789062 69.101562 0.976562 69.296875 0.984375 C 68.972656 3.648438 69.78125 5.734375 68.527344 7.585938 C 66.484375 5.890625 68.84375 3.234375 68.835938 0.832031 Z M 68.835938 0.832031 " fill-opacity="1" fill-rule="evenodd"/></g><g clip-path="url(#bd7556376e)"><path fill="#006acb" d="M 107.179688 0.832031 L 107.488281 0.832031 C 107.890625 0.785156 107.882812 1.152344 107.945312 1.445312 C 108.542969 1.464844 109.359375 1.261719 109.175781 2.058594 C 107.898438 2.421875 106.894531 1.886719 107.179688 0.832031 Z M 107.179688 0.832031 " fill-opacity="1" fill-rule="evenodd"/></g><path fill="#006acb" d="M 105.339844 1.90625 C 105.042969 2.203125 104.402344 2.066406 104.574219 1.445312 C 105.015625 1.253906 105.273438 1.367188 105.339844 1.90625 Z M 105.339844 1.90625 " fill-opacity="1" fill-rule="evenodd"/><path fill="#006acb" d="M 81.71875 1.753906 L 81.71875 2.675781 C 81.191406 2.796875 81.074219 2.503906 80.800781 2.367188 C 80.820312 1.875 81.148438 1.691406 81.71875 1.753906 Z M 81.71875 1.753906 " fill-opacity="1" fill-rule="evenodd"/><path fill="#006acb" d="M 55.800781 2.214844 C 55.886719 2.535156 56.179688 2.652344 56.105469 3.132812 C 55.605469 3.519531 54.832031 3.15625 55.03125 2.367188 C 55.210938 2.238281 55.441406 2.164062 55.800781 2.214844 Z M 55.800781 2.214844 " fill-opacity="1" fill-rule="evenodd"/><path fill="#006acb" d="M 110.25 5.128906 C 110.050781 5.339844 109.582031 5.28125 109.175781 5.285156 C 107.953125 4.003906 110.558594 3.234375 110.25 5.128906 Z M 110.25 5.128906 " fill-opacity="1" fill-rule="evenodd"/><path fill="#006acb" d="M 84.636719 4.207031 C 85.277344 5.097656 84.007812 5.945312 83.40625 5.589844 C 83.765625 5.078125 83.707031 4.152344 84.636719 4.207031 Z M 84.636719 4.207031 " fill-opacity="1" fill-rule="evenodd"/><path fill="#006acb" d="M 78.957031 4.515625 L 78.957031 5.28125 C 78.394531 5.382812 77.90625 5.566406 77.578125 5.128906 C 77.484375 4.199219 78.328125 4.347656 78.957031 4.515625 Z M 78.957031 4.515625 " fill-opacity="1" fill-rule="evenodd"/><path fill="#006acb" d="M 57.484375 4.824219 L 57.945312 4.824219 C 58.292969 5.214844 58.089844 5.988281 57.332031 5.742188 C 57.3125 5.367188 57.308594 5.003906 57.484375 4.824219 Z M 57.484375 4.824219 " fill-opacity="1" fill-rule="evenodd"/><path fill="#006acb" d="M 61.78125 7.125 C 61.417969 7.121094 61.328125 7.390625 60.859375 7.277344 C 60.773438 6.957031 60.480469 6.839844 60.554688 6.359375 C 61.078125 5.980469 62.011719 6.257812 61.78125 7.125 Z M 61.78125 7.125 " fill-opacity="1" fill-rule="evenodd"/><path fill="#006acb" d="M 40.769531 6.816406 L 41.382812 6.816406 C 41.429688 7.171875 41.355469 7.40625 41.226562 7.585938 C 40.75 7.65625 40.738281 7.257812 40.769531 6.816406 Z M 40.769531 6.816406 " fill-opacity="1" fill-rule="evenodd"/><path fill="#006acb" d="M 43.222656 6.972656 C 43.578125 6.921875 43.8125 6.996094 43.988281 7.125 C 44.023438 7.671875 43.769531 7.925781 43.222656 7.890625 C 43.085938 7.441406 43.085938 7.421875 43.222656 6.972656 Z M 43.222656 6.972656 " fill-opacity="1" fill-rule="evenodd"/><path fill="#006acb" d="M 56.871094 7.277344 C 56.902344 7.871094 56.628906 8.160156 56.105469 8.199219 C 55.425781 7.808594 56.175781 6.691406 56.871094 7.277344 Z M 56.871094 7.277344 " fill-opacity="1" fill-rule="evenodd"/><path fill="#006acb" d="M 94.144531 7.738281 C 94.066406 8.378906 94.589844 8.414062 94.449219 9.121094 C 93.628906 9.125 93.21875 8.714844 93.222656 7.890625 C 93.691406 8.003906 93.675781 7.628906 94.144531 7.738281 Z M 94.144531 7.738281 " fill-opacity="1" fill-rule="evenodd"/><path fill="#006acb" d="M 50.277344 7.890625 C 50.597656 8.03125 50.746094 8.34375 50.738281 8.8125 C 50.050781 9.023438 49.992188 8.195312 50.277344 7.890625 Z M 50.277344 7.890625 " fill-opacity="1" fill-rule="evenodd"/><path fill="#006acb" d="M 34.785156 8.8125 C 36.3125 9.636719 35.667969 12.1875 35.859375 14.183594 C 35.972656 15.367188 36.492188 16.269531 36.320312 17.253906 C 35.6875 17.273438 36.292969 16.054688 35.859375 15.875 C 35.363281 15.988281 36.132812 17.375 35.398438 17.253906 C 35.335938 14.335938 33.671875 11.605469 34.480469 8.8125 Z M 34.785156 8.8125 " fill-opacity="1" fill-rule="evenodd"/><path fill="#006acb" d="M 102.734375 8.8125 C 103.445312 8.765625 103.792969 9.082031 103.804688 9.734375 C 103.667969 9.800781 103.53125 9.867188 103.5 10.042969 C 103.066406 10.167969 103.101562 9.824219 102.734375 9.886719 C 102.65625 9.539062 102.429688 9.105469 102.734375 8.8125 Z M 102.734375 8.8125 " fill-opacity="1" fill-rule="evenodd"/><path fill="#006acb" d="M 98.746094 9.121094 C 99.316406 9.160156 99.640625 9.453125 99.511719 10.195312 C 98.925781 10.269531 98.554688 10.128906 98.4375 9.734375 C 98.328125 9.316406 98.742188 9.425781 98.746094 9.121094 Z M 98.746094 9.121094 " fill-opacity="1" fill-rule="evenodd"/><path fill="#006acb" d="M 108.40625 10.5 C 108.046875 10.816406 107.226562 10.660156 107.179688 10.195312 C 107.148438 9.269531 108.6875 9.476562 108.40625 10.5 Z M 108.40625 10.5 " fill-opacity="1" fill-rule="evenodd"/><path fill="#006acb" d="M 48.589844 9.734375 C 48.710938 10.074219 48.914062 10.332031 48.898438 10.808594 C 48.25 11.132812 47.636719 10.6875 47.667969 9.886719 C 48.03125 9.890625 48.121094 9.625 48.589844 9.734375 Z M 48.589844 9.734375 " fill-opacity="1" fill-rule="evenodd"/><path fill="#006acb" d="M 91.84375 9.886719 C 92.464844 10.417969 93.074219 11.6875 92.917969 12.496094 C 92 12.75 92.492188 11.589844 92.148438 11.269531 C 91.769531 11.285156 91.675781 11.554688 91.382812 11.269531 C 91.242188 10.515625 91.5 10.160156 91.84375 9.886719 Z M 91.84375 9.886719 " fill-opacity="1" fill-rule="evenodd"/><path fill="#006acb" d="M 95.367188 11.574219 C 94.597656 11.527344 94.34375 10.960938 94.296875 10.195312 C 95.214844 9.683594 95.730469 10.871094 95.367188 11.574219 Z M 95.367188 11.574219 " fill-opacity="1" fill-rule="evenodd"/><path fill="#006acb" d="M 100.890625 10.347656 C 100.910156 10.875 100.972656 11.449219 100.585938 11.578125 C 100.007812 11.429688 100.25 10.207031 100.890625 10.347656 Z M 100.890625 10.347656 " fill-opacity="1" fill-rule="evenodd"/><path fill="#006acb" d="M 45.214844 11.730469 C 44.839844 12.0625 44.082031 11.84375 44.140625 11.269531 C 44.519531 10.9375 45.277344 11.15625 45.214844 11.730469 Z M 45.214844 11.730469 " fill-opacity="1" fill-rule="evenodd"/><path fill="#006acb" d="M 63.929688 12.648438 C 64.410156 12.578125 64.527344 12.867188 64.847656 12.957031 L 64.847656 14.03125 C 63.839844 14.320312 63.554688 13.253906 63.929688 12.648438 Z M 63.929688 12.648438 " fill-opacity="1" fill-rule="evenodd"/><path fill="#006acb" d="M 88.007812 15.71875 C 87.265625 15.601562 86.910156 14.6875 87.394531 14.183594 C 88.710938 13.933594 88.851562 15.371094 88.007812 15.71875 Z M 88.007812 15.71875 " fill-opacity="1" fill-rule="evenodd"/><g clip-path="url(#0783631637)"><path fill="#006acb" d="M 24.511719 15.261719 C 25.871094 15.925781 25.882812 17.796875 26.65625 18.945312 C 27.195312 19.742188 28.132812 19.808594 28.34375 20.785156 C 27.710938 20.90625 28.054688 20.050781 27.425781 20.171875 C 27.5 21.171875 28.667969 21.359375 28.191406 22.472656 C 27.105469 20.902344 25.9375 19.40625 24.511719 18.175781 C 24.929688 17.203125 23.222656 16.289062 24.203125 15.261719 Z M 24.511719 15.261719 " fill-opacity="1" fill-rule="evenodd"/></g><path fill="#006acb" d="M 79.726562 18.789062 C 78.847656 18.800781 78.632812 18.144531 78.191406 17.714844 C 78.664062 16.050781 80.171875 17.851562 79.726562 18.789062 Z M 79.726562 18.789062 " fill-opacity="1" fill-rule="evenodd"/><path fill="#006acb" d="M 76.65625 18.636719 C 77.179688 18.78125 77.605469 19.015625 77.578125 19.710938 C 76.910156 20.226562 75.949219 19.078125 76.65625 18.636719 Z M 76.65625 18.636719 " fill-opacity="1" fill-rule="evenodd"/><path fill="#006acb" d="M 75.125 21.859375 L 75.890625 21.859375 C 75.851562 22.308594 76.238281 22.332031 76.199219 22.78125 C 76.074219 22.914062 75.777344 22.871094 75.738281 23.085938 C 75.117188 23.011719 74.863281 22.394531 75.125 21.859375 Z M 75.125 21.859375 " fill-opacity="1" fill-rule="evenodd"/><path fill="#006acb" d="M 78.34375 23.546875 L 78.957031 23.546875 C 78.839844 24.21875 79.730469 24.386719 79.265625 24.929688 C 78.453125 24.976562 78.394531 24.265625 78.34375 23.546875 Z M 78.34375 23.546875 " fill-opacity="1" fill-rule="evenodd"/><path fill="#006acb" d="M 72.058594 24.929688 C 72.796875 24.855469 73.113281 25.199219 73.285156 25.695312 C 73.109375 26.238281 72.824219 26.671875 72.058594 26.617188 C 71.703125 26.1875 72.007812 25.433594 72.058594 24.929688 Z M 72.058594 24.929688 " fill-opacity="1" fill-rule="evenodd"/><path fill="#006acb" d="M 83.101562 26.003906 C 83.089844 26.65625 82.738281 26.972656 82.027344 26.925781 C 81.71875 25.960938 82.660156 25.277344 83.101562 26.003906 Z M 83.101562 26.003906 " fill-opacity="1" fill-rule="evenodd"/><path fill="#006acb" d="M 83.5625 26.925781 L 84.019531 26.925781 C 84.8125 28.035156 82.769531 28.035156 83.5625 26.925781 Z M 83.5625 26.925781 " fill-opacity="1" fill-rule="evenodd"/><path fill="#006acb" d="M 80.492188 27.84375 C 80.296875 28.058594 79.828125 27.996094 79.417969 28 C 79.171875 26.867188 80.585938 26.851562 80.492188 27.84375 Z M 80.492188 27.84375 " fill-opacity="1" fill-rule="evenodd"/><path fill="#006acb" d="M 76.8125 28.152344 C 76.132812 28.078125 76.050781 28.363281 75.585938 28.152344 C 75.347656 26.871094 76.957031 27.113281 76.8125 28.152344 Z M 76.8125 28.152344 " fill-opacity="1" fill-rule="evenodd"/><path fill="#006acb" d="M 61.320312 28.152344 C 61.597656 29.125 60.636719 29.335938 60.09375 29.6875 C 58.554688 30.6875 56.363281 31.464844 54.574219 32.449219 C 54.105469 31.671875 55.484375 31.421875 55.492188 30.609375 C 57.816406 30.253906 58.570312 27.570312 61.320312 28.152344 Z M 61.320312 28.152344 " fill-opacity="1" fill-rule="evenodd"/><path fill="#006acb" d="M 28.039062 29.839844 C 28.609375 29.714844 28.320312 30.789062 28.191406 30.914062 C 30.085938 32.101562 28.070312 35.28125 28.34375 36.746094 C 27.660156 36.769531 27.578125 36.183594 26.964844 36.132812 C 26.683594 33.757812 27.699219 32.03125 28.039062 29.839844 Z M 28.039062 29.839844 " fill-opacity="1" fill-rule="evenodd"/><path fill="#006acb" d="M 81.414062 32.910156 C 80.867188 33.304688 80.113281 32.851562 80.1875 32.144531 C 80.714844 31.625 81.449219 32.035156 81.414062 32.910156 Z M 81.414062 32.910156 " fill-opacity="1" fill-rule="evenodd"/><path fill="#006acb" d="M 105.035156 32.605469 C 104.75 32.933594 104.851562 33.648438 104.113281 33.523438 C 104.164062 32.960938 104.542969 32.726562 105.035156 32.605469 Z M 105.035156 32.605469 " fill-opacity="1" fill-rule="evenodd"/><path fill="#006acb" d="M 79.113281 33.984375 C 79.449219 34.210938 79.832031 34.390625 79.726562 35.058594 C 79.269531 35.261719 78.949219 35.21875 78.652344 34.90625 C 78.570312 34.363281 78.898438 34.234375 79.113281 33.984375 Z M 79.113281 33.984375 " fill-opacity="1" fill-rule="evenodd"/><path fill="#006acb" d="M 81.71875 35.058594 C 81.285156 35.238281 81.070312 35.089844 80.644531 34.90625 C 80.390625 33.640625 82.058594 33.828125 81.71875 35.058594 Z M 81.71875 35.058594 " fill-opacity="1" fill-rule="evenodd"/><path fill="#006acb" d="M 60.398438 34.292969 C 60.578125 34.265625 60.671875 34.324219 60.707031 34.445312 C 61.035156 35.058594 60.449219 35.773438 60.398438 36.59375 C 60.328125 37.761719 60.972656 39.167969 60.09375 39.972656 L 59.019531 39.972656 C 57.894531 37.65625 60.394531 36.480469 60.398438 34.292969 Z M 60.398438 34.292969 " fill-opacity="1" fill-rule="evenodd"/><path fill="#006acb" d="M 35.398438 38.742188 C 35.949219 38.652344 35.867188 39.199219 35.859375 39.664062 C 35.308594 39.753906 35.394531 39.210938 35.398438 38.742188 Z M 35.398438 38.742188 " fill-opacity="1" fill-rule="evenodd"/><path fill="#006acb" d="M 113.164062 40.125 C 112.402344 40.21875 112.351562 39.609375 111.476562 39.816406 C 111.335938 38.683594 113.652344 38.753906 113.164062 40.125 Z M 113.164062 40.125 " fill-opacity="1" fill-rule="evenodd"/><path fill="#006acb" d="M 110.707031 40.277344 C 110.1875 40.238281 109.464844 40.398438 109.175781 40.125 C 109.320312 39.550781 110.914062 39.078125 110.707031 40.277344 Z M 110.707031 40.277344 " fill-opacity="1" fill-rule="evenodd"/><path fill="#006acb" d="M 107.945312 40.890625 C 108.070312 40.921875 108.101562 41.046875 108.253906 41.046875 C 108.226562 41.167969 108.101562 41.199219 108.101562 41.351562 C 107.976562 41.324219 107.949219 41.199219 107.792969 41.199219 C 107.824219 41.074219 107.949219 41.046875 107.945312 40.890625 Z M 107.945312 40.890625 " fill-opacity="1" fill-rule="evenodd"/><path fill="#006acb" d="M 40.15625 41.660156 C 40.28125 41.992188 40.550781 42.183594 40.460938 42.734375 C 39.800781 43.074219 39.136719 42.675781 39.234375 41.8125 C 39.414062 41.636719 39.777344 41.640625 40.15625 41.660156 Z M 40.15625 41.660156 " fill-opacity="1" fill-rule="evenodd"/><path fill="#006acb" d="M 112.089844 41.964844 C 112.613281 41.902344 112.960938 42.011719 112.855469 42.582031 C 112.476562 42.941406 111.894531 42.640625 112.089844 41.964844 Z M 112.089844 41.964844 " fill-opacity="1" fill-rule="evenodd"/><g clip-path="url(#72cf0ab7cf)"><path fill="#006acb" d="M 115.15625 42.273438 C 115.230469 43.117188 115.070312 43.722656 114.234375 43.65625 C 113.65625 43.046875 114.0625 42.066406 115.15625 42.273438 Z M 115.15625 42.273438 " fill-opacity="1" fill-rule="evenodd"/></g><path fill="#006acb" d="M 33.253906 42.582031 C 33.625 42.667969 34.042969 42.710938 34.019531 43.195312 C 33.871094 43.199219 33.898438 43.382812 33.867188 43.5 C 33.234375 43.617188 32.898438 42.976562 33.253906 42.582031 Z M 33.253906 42.582031 " fill-opacity="1" fill-rule="evenodd"/><g clip-path="url(#0ce9a12005)"><path fill="#006acb" d="M 39.386719 44.117188 C 39.011719 44.445312 38.253906 44.230469 38.3125 43.65625 C 38.691406 43.324219 39.449219 43.539062 39.386719 44.117188 Z M 39.386719 44.117188 " fill-opacity="1" fill-rule="evenodd"/></g><g clip-path="url(#4c35fa9c3f)"><path fill="#006acb" d="M 113.007812 43.960938 C 113.097656 44.511719 112.554688 44.429688 112.089844 44.421875 C 112.113281 44.242188 112.054688 44.148438 111.933594 44.117188 C 111.953125 43.679688 112.898438 43.394531 113.007812 43.960938 Z M 113.007812 43.960938 " fill-opacity="1" fill-rule="evenodd"/></g><g clip-path="url(#64f04fd12a)"><path fill="#006acb" d="M 109.632812 44.421875 C 109.453125 44.597656 109.09375 44.597656 108.714844 44.574219 C 108.496094 43.878906 109.75 43.703125 109.632812 44.421875 Z M 109.632812 44.421875 " fill-opacity="1" fill-rule="evenodd"/></g><g clip-path="url(#89f7699f81)"><path fill="#006acb" d="M 65.769531 -10.679688 C 65.75 -10.402344 65.957031 -10.355469 65.921875 -10.066406 C 66.214844 -10.132812 66.308594 -10.394531 66.6875 -10.371094 L 66.6875 -9.757812 C 67.335938 -10.03125 68.027344 -10.261719 68.835938 -10.371094 C 69.671875 -9.828125 70.140625 -8.914062 70.832031 -8.222656 C 72.234375 -9.992188 73.34375 -12.050781 73.898438 -14.667969 C 74.074219 -14.644531 74.171875 -14.703125 74.203125 -14.824219 C 74.785156 -14.492188 75.414062 -14.105469 75.125 -12.980469 C 74.976562 -12.410156 74.300781 -12.273438 73.898438 -11.753906 C 72.753906 -10.277344 72.148438 -8.179688 71.597656 -7.148438 C 71.28125 -7.191406 71.453125 -7.722656 71.136719 -7.761719 C 70.746094 -7.695312 70.429688 -7.546875 70.214844 -7.300781 C 70.175781 -6.648438 70.832031 -6.691406 70.984375 -6.226562 C 71.269531 -4.851562 71.257812 -3.765625 70.214844 -2.238281 C 70.09375 -2.054688 69.816406 -2.160156 69.601562 -1.929688 C 69.179688 -1.476562 68.960938 -0.738281 68.683594 -0.550781 C 67.992188 -0.078125 67.019531 -0.121094 66.382812 0.0664062 C 66.449219 -0.460938 66.320312 -0.796875 66.230469 -1.164062 C 67.527344 -2.675781 69.25 -3.769531 69.601562 -6.226562 C 69.058594 -6.46875 69.511719 -5.707031 69.144531 -5.769531 C 68.417969 -6.015625 68.078125 -6.644531 67.609375 -7.148438 C 67.496094 -7.925781 68.03125 -8.058594 68.070312 -8.683594 C 67.347656 -9.132812 67.507812 -7.558594 66.84375 -7.457031 C 66.941406 -8.226562 67.582031 -8.453125 67.457031 -9.453125 C 66.703125 -9.589844 66.871094 -8.808594 66.226562 -8.835938 C 65.582031 -8.957031 65.292969 -9.433594 64.695312 -9.605469 C 64.5625 -9.632812 64.550781 -9.546875 64.542969 -9.453125 C 64.429688 -9.773438 65.085938 -10.640625 65.769531 -10.679688 Z M 69.296875 -9.144531 C 69.132812 -8.253906 69.960938 -9.082031 69.296875 -9.144531 Z M 69.296875 -9.144531 " fill-opacity="1" fill-rule="evenodd"/></g><path fill="#006acb" d="M 26.65625 11.421875 C 27.765625 12.101562 28.679688 12.980469 28.496094 14.953125 C 28.515625 15.34375 28.722656 15.546875 29.113281 15.566406 C 28.683594 16.558594 29.945312 17.441406 30.03125 18.636719 C 30.070312 19.164062 29.476562 19.421875 29.878906 20.019531 C 29.167969 19.15625 29.121094 18.265625 28.496094 17.410156 C 28.128906 16.902344 27.714844 16.539062 27.269531 16.027344 C 26.636719 15.292969 26.023438 13.914062 25.890625 12.34375 C 26.050781 11.9375 26.5 11.828125 26.65625 11.421875 Z M 28.039062 16.335938 C 27.882812 15.339844 27.304688 14.035156 26.503906 14.183594 C 26.933594 14.984375 27.109375 16.035156 28.039062 16.335938 Z M 28.039062 16.335938 " fill-opacity="1" fill-rule="evenodd"/><path fill="#006acb" d="M 97.824219 30.148438 C 97.726562 31.304688 99.015625 30.410156 99.203125 29.6875 C 99.523438 29.414062 100.058594 29.855469 100.433594 29.996094 C 100.882812 29.515625 100.847656 28.472656 100.738281 27.84375 C 100.867188 27.382812 101.394531 27.203125 101.660156 26.769531 C 102.332031 25.667969 102.335938 24.207031 102.730469 22.78125 C 102.789062 22.578125 103.246094 22.257812 103.347656 21.859375 C 103.488281 21.300781 103.59375 20.574219 103.960938 20.324219 C 104.582031 19.902344 105.46875 20.09375 106.414062 20.480469 C 105.878906 23.523438 103.066406 24.292969 102.425781 27.230469 C 102.371094 27.492188 102.546875 27.523438 102.730469 27.539062 C 102.363281 28.550781 101.265625 28.835938 100.890625 29.839844 C 101.207031 30.910156 102.574219 30.917969 102.730469 32.144531 C 103.390625 31.863281 103.125 31.101562 103.347656 30.148438 C 103.847656 29.882812 104.113281 29.382812 104.726562 29.226562 C 105.597656 27.027344 107.292969 25.65625 108.714844 24.007812 C 109.257812 24.484375 109.410156 25.359375 109.789062 26.003906 C 108.464844 27.90625 105.886719 28.546875 105.03125 30.914062 C 103.996094 31.261719 103.363281 32.007812 102.730469 32.757812 C 103.042969 33.570312 103.835938 33.90625 103.804688 35.058594 C 104.285156 33.492188 105.847656 33.007812 106.871094 31.988281 C 108.566406 32.085938 109.152344 29.917969 111.167969 29.839844 C 112.167969 31.875 109.074219 32.167969 108.253906 33.371094 C 107.128906 33.316406 106.546875 33.753906 105.644531 34.292969 C 104.746094 34.828125 103.914062 35.253906 103.34375 36.132812 C 103.160156 36.421875 103.207031 36.933594 103.039062 37.207031 C 102.765625 37.65625 101.503906 39.15625 101.046875 39.511719 C 100.613281 39.847656 99.59375 40.355469 99.050781 40.429688 C 98.457031 40.515625 96.949219 40.375 96.597656 39.816406 C 96.441406 39.300781 97.074219 39.578125 97.363281 39.511719 C 97.316406 38.941406 96.6875 38.957031 96.902344 38.128906 C 97.578125 38.015625 97.53125 38.625 97.976562 38.742188 C 98.46875 37.953125 99.1875 37.394531 99.203125 36.132812 C 99.515625 35.824219 99.503906 36.203125 99.816406 36.289062 C 99.730469 35.789062 99.921875 35.574219 99.972656 35.214844 C 100.601562 35.246094 100.347656 36.167969 100.890625 36.289062 C 101.425781 36.054688 101.355469 35.214844 101.660156 34.753906 C 101.441406 33.894531 100.34375 33.921875 100.125 33.0625 C 99.726562 33.21875 99.097656 33.335938 98.898438 32.910156 C 98.738281 32.394531 99.375 32.671875 99.664062 32.605469 C 98.863281 31.628906 98.265625 33.15625 97.824219 33.523438 C 97.152344 33.582031 97.035156 33.085938 96.445312 33.0625 C 96.351562 33.875 96.714844 34.226562 97.210938 34.445312 C 97.007812 35.089844 96.707031 34.445312 96.289062 34.445312 C 96.226562 34.972656 96.75 34.90625 96.902344 35.214844 C 96.792969 35.664062 96.425781 35.859375 95.832031 35.828125 C 95.550781 36.855469 96.25 38.695312 95.675781 39.511719 C 94.515625 39.597656 94.113281 38.925781 93.222656 38.742188 C 92.933594 37.714844 92.933594 36.726562 92.917969 35.519531 C 92.894531 33.910156 93.863281 32.578125 93.683594 31.222656 C 93.453125 29.511719 91.902344 28.765625 91.84375 26.925781 C 94.210938 25.453125 94.261719 29.796875 95.675781 30.761719 C 96.210938 30.582031 96.011719 29.664062 96.75 29.6875 C 96.863281 29.21875 96.484375 29.234375 96.597656 28.765625 C 97.832031 26.21875 96.425781 21.023438 99.203125 20.019531 C 99.796875 23.074219 97.957031 25.007812 97.976562 28 C 97.167969 28.519531 96.808594 29.492188 96.902344 30.914062 C 97.117188 31.167969 97.613281 30.40625 97.824219 30.148438 Z M 101.660156 28.304688 C 101.996094 28.371094 102.503906 27.847656 102.117188 27.691406 C 102.054688 27.988281 101.523438 27.8125 101.660156 28.304688 Z M 105.800781 28.460938 C 105.800781 28.15625 106.21875 28.265625 106.105469 27.84375 C 105.765625 27.730469 105.476562 28.410156 105.800781 28.460938 Z M 103.804688 30.300781 C 104.179688 30.214844 104.59375 30.167969 104.574219 29.6875 C 104.125 29.699219 104.003906 30.039062 103.804688 30.300781 Z M 99.203125 30.453125 C 99.410156 30.503906 99.496094 30.671875 99.816406 30.609375 C 99.933594 30.085938 99.234375 30.011719 99.203125 30.453125 Z M 98.898438 30.914062 L 99.203125 30.914062 L 99.203125 30.609375 L 98.898438 30.609375 Z M 101.046875 31.527344 C 101.121094 31.132812 100.503906 30.660156 100.277344 31.070312 C 100.640625 31.117188 100.5625 31.601562 101.046875 31.527344 Z M 97.976562 31.527344 C 98.589844 31.445312 98.441406 31.445312 99.050781 31.527344 C 99.035156 30.863281 98.023438 31.011719 97.976562 31.527344 Z M 99.816406 31.683594 C 99.300781 31.214844 99.351562 32.25 99.816406 31.683594 Z M 97.210938 32.296875 C 97.230469 32.789062 97.558594 32.972656 98.132812 32.910156 C 98.097656 32.621094 98.304688 32.570312 98.285156 32.296875 C 98.152344 32.070312 98.054688 31.808594 97.671875 31.835938 C 97.507812 31.980469 97.625 32.402344 97.210938 32.296875 Z M 102.886719 34.597656 C 102.890625 34.082031 102.675781 33.789062 102.425781 33.523438 C 102.089844 33.90625 102.535156 34.4375 102.886719 34.597656 Z M 101.964844 36.746094 C 102.300781 36.429688 101.832031 36.25 102.117188 35.980469 C 101.683594 35.960938 101.53125 36.757812 101.964844 36.746094 Z M 101.964844 36.746094 " fill-opacity="1" fill-rule="evenodd"/><path fill="#006acb" d="M 51.65625 33.523438 C 51.273438 33.136719 51.054688 33.699219 50.585938 33.679688 C 50.414062 33.285156 50.296875 32.839844 49.96875 32.605469 C 50.335938 32.050781 50.605469 31.394531 50.738281 30.609375 C 49.855469 29.722656 48.59375 30.851562 47.667969 30.914062 C 47.59375 31.398438 48.199219 31.320312 47.824219 31.683594 C 47.617188 31.902344 46.953125 31.902344 46.75 31.683594 C 46.46875 31.964844 46.667969 32.542969 46.902344 32.757812 C 46.65625 33.238281 46.417969 32.441406 46.136719 32.449219 C 45.6875 32.664062 46.40625 32.980469 46.289062 33.371094 C 45.589844 33.457031 45.746094 32.6875 45.214844 32.605469 C 45.066406 33.980469 45.816406 34.460938 45.828125 35.671875 C 45.707031 35.59375 45.582031 35.511719 45.367188 35.519531 C 45.417969 35.878906 45.609375 36.097656 45.523438 36.59375 C 44.53125 37.050781 43.082031 37.359375 42.609375 36.132812 C 41.707031 33.800781 44.640625 29.453125 44.449219 26.925781 C 44.375 25.941406 43.171875 24.085938 44.601562 23.394531 C 46.355469 23.679688 45.726562 26.109375 45.984375 27.539062 C 45.355469 28.445312 44.925781 29.550781 44.449219 30.609375 C 45.246094 30.6875 45.21875 29.949219 45.523438 29.535156 C 45.796875 29.554688 45.847656 29.347656 46.136719 29.378906 C 46.710938 28.414062 47.726562 27.742188 48.742188 27.078125 C 48.941406 26.949219 49.210938 26.792969 49.355469 26.617188 C 49.710938 26.195312 49.777344 25.25 50.125 24.777344 C 50.371094 24.4375 50.640625 24.246094 51.042969 24.164062 C 51.84375 22.761719 52.707031 21.425781 53.804688 20.324219 C 55.558594 20.933594 54.914062 21.773438 53.804688 22.933594 C 53.414062 23.34375 53.066406 23.863281 52.730469 24.164062 C 52 24.820312 51.238281 24.960938 50.890625 26.003906 C 51.359375 26.117188 51.34375 25.738281 51.8125 25.851562 C 50.949219 26.984375 49.359375 27.390625 48.4375 28.460938 C 48.96875 28.933594 49.695312 28.292969 50.429688 28.460938 C 50.320312 29.132812 50.511719 29.503906 50.890625 29.6875 C 51.917969 28.972656 53.289062 28.609375 53.652344 27.230469 C 54.328125 27.34375 54.28125 26.734375 54.726562 26.617188 C 55.605469 24.835938 56.945312 23.519531 58.867188 22.78125 C 60.347656 24.347656 58.289062 25.550781 56.871094 26.003906 C 56.828125 26.410156 57.085938 26.507812 57.484375 26.464844 C 56.6875 26.535156 56.332031 27.050781 55.492188 27.078125 C 55.378906 27.546875 55.757812 27.53125 55.644531 28 C 55.089844 28.109375 54.851562 28.535156 54.265625 28.613281 C 54.347656 28.488281 54.425781 28.363281 54.417969 28.152344 L 53.804688 28.152344 C 53.664062 28.882812 52.820312 28.90625 52.578125 29.535156 C 52.128906 29.324219 52.058594 29.117188 51.65625 29.535156 C 51.703125 29.742188 52.042969 29.660156 52.269531 29.6875 C 51.824219 30.410156 52.859375 30.789062 53.039062 31.375 L 53.039062 33.0625 C 53.105469 33.292969 53.234375 33.003906 53.5 33.0625 C 53.59375 34.539062 52.453125 34.78125 52.425781 36.132812 C 54.601562 34.578125 57.140625 33.382812 60.09375 32.605469 C 60.410156 32.800781 60.871094 32.847656 60.859375 33.371094 C 60.3125 34.46875 58.71875 34.503906 57.484375 34.136719 C 56.03125 34.9375 54.332031 35.488281 52.730469 36.132812 L 52.730469 37.207031 C 51.148438 38.0625 49.050781 40.042969 46.75 38.742188 C 46.664062 38.160156 46.25 37.910156 46.289062 37.207031 C 47.328125 36.203125 50.03125 36.863281 50.582031 35.367188 C 50.71875 35.484375 50.929688 35.53125 51.199219 35.519531 C 51.5 35.414062 51.605469 35.109375 51.65625 34.753906 C 51.519531 34.335938 51.09375 34.882812 51.042969 35.058594 C 50.792969 34.699219 51.585938 34.074219 51.65625 33.523438 Z M 54.570312 27.84375 C 54.921875 27.886719 55.148438 27.808594 55.183594 27.539062 C 54.914062 27.574219 54.417969 27.382812 54.570312 27.84375 Z M 48.4375 29.996094 C 48.148438 29.976562 48.332031 29.488281 47.976562 29.535156 C 47.8125 29.921875 48.300781 30.410156 48.4375 29.996094 Z M 50.277344 29.6875 C 49.8125 30.203125 50.84375 30.152344 50.277344 29.6875 Z M 46.289062 31.835938 C 46.207031 31.304688 46.515625 30.378906 45.984375 30.300781 C 45.695312 30.699219 45.738281 31.796875 46.289062 31.835938 Z M 47.054688 31.375 C 47.039062 30.984375 47.027344 30.585938 46.597656 30.609375 C 46.648438 30.964844 46.753906 31.269531 47.054688 31.375 Z M 50.738281 32.910156 C 50.914062 33.039062 51.148438 33.113281 51.503906 33.0625 C 51.710938 32.839844 51.816406 31.847656 51.351562 31.835938 C 51.265625 32.3125 50.894531 32.503906 50.738281 32.910156 Z M 52.269531 34.753906 C 52.453125 34.484375 52.871094 33.667969 52.269531 33.523438 C 52.238281 33.8125 51.875 34.542969 52.269531 34.753906 Z M 50.585938 37.515625 C 51.023438 37.546875 51.421875 37.535156 51.351562 37.054688 C 50.871094 36.980469 50.722656 37.246094 50.585938 37.515625 Z M 50.585938 37.515625 " fill-opacity="1" fill-rule="evenodd"/><path fill="#006acb" d="M 32.640625 17.867188 C 32.015625 17.929688 32.46875 16.914062 32.332031 16.488281 C 30.949219 14.855469 30.386719 12.398438 29.878906 9.886719 C 30.996094 8.640625 32.285156 10.535156 31.71875 11.882812 C 31.773438 12.339844 31.964844 12.660156 32.179688 12.957031 C 32.230469 14.050781 32.644531 15.058594 32.792969 16.179688 C 32.859375 16.667969 33.328125 17.503906 32.640625 17.867188 Z M 32.640625 17.867188 " fill-opacity="1" fill-rule="evenodd"/><path fill="#006acb" d="M 36.472656 18.328125 C 35.867188 19.207031 35.769531 20.59375 35.859375 22.167969 C 34.890625 22.164062 34.941406 21.140625 34.324219 20.785156 C 33.765625 21.042969 33.925781 22.023438 33.40625 22.320312 C 32.9375 22.429688 32.847656 22.164062 32.484375 22.167969 C 31.964844 22.867188 31.496094 24.007812 31.257812 25.390625 C 31.839844 25.613281 31.554688 24.96875 32.027344 25.082031 C 31.476562 25.550781 32.136719 26.066406 32.179688 26.617188 C 32.207031 26.984375 31.910156 27.3125 32.027344 27.691406 C 32.261719 28.472656 33.398438 29.011719 32.792969 29.6875 C 32.96875 29.816406 33.203125 29.890625 33.558594 29.839844 C 33.085938 30.339844 32.214844 30.441406 31.566406 30.761719 C 31.019531 30.542969 30.660156 30.132812 30.03125 29.996094 C 29.742188 30.296875 29.828125 31.519531 30.03125 31.835938 C 30.488281 31.832031 29.816406 30.699219 30.492188 30.914062 C 31.230469 33.039062 30.777344 35.921875 30.339844 38.4375 C 28.003906 37.972656 29.597656 35.453125 29.726562 33.832031 C 29.839844 32.378906 29.1875 31.085938 29.726562 29.839844 C 28.363281 28.402344 28.097656 25.894531 28.191406 23.394531 C 28.628906 22.863281 28.84375 22.105469 28.957031 21.246094 C 29.371094 21.445312 29.054688 22.378906 29.570312 22.472656 C 30.050781 21.984375 29.242188 21.480469 29.417969 20.785156 C 29.914062 20.648438 29.632812 21.285156 29.878906 21.398438 C 31.226562 20.90625 31.992188 19.011719 33.40625 19.097656 C 33.785156 19.117188 33.667969 18.910156 33.40625 18.945312 C 34.148438 18.320312 35.367188 18.195312 36.472656 18.328125 Z M 34.785156 18.789062 C 34.5625 18.875 33.992188 18.609375 34.019531 18.945312 C 34.242188 18.859375 34.8125 19.121094 34.785156 18.789062 Z M 33.253906 20.324219 C 33.316406 20.03125 33.582031 19.9375 33.558594 19.558594 C 33.082031 19.507812 32.738281 20.265625 33.253906 20.324219 Z M 33.867188 19.863281 C 33.703125 20.753906 34.53125 19.929688 33.867188 19.863281 Z M 31.410156 21.859375 C 32.046875 22.003906 32.351562 20.71875 31.566406 20.785156 C 31.355469 20.984375 31.414062 21.453125 31.410156 21.859375 Z M 29.265625 23.703125 C 29.515625 23.453125 29.449219 22.738281 28.957031 22.78125 C 28.960938 23.1875 28.871094 23.683594 29.265625 23.703125 Z M 29.570312 24.164062 C 30.027344 24.34375 30.230469 23.515625 29.878906 23.394531 C 29.8125 23.6875 29.546875 23.78125 29.570312 24.164062 Z M 29.417969 24.929688 C 29.511719 25.5 29.707031 25.96875 30.183594 26.15625 C 30.121094 25.101562 31.40625 23.996094 30.796875 23.394531 C 30.570312 24.136719 30.175781 24.71875 29.417969 24.929688 Z M 29.417969 24.929688 " fill-opacity="1" fill-rule="evenodd"/><path fill="#006acb" d="M 40.613281 16.335938 C 40.753906 17.394531 40.054688 17.617188 39.695312 18.175781 C 39.46875 19.355469 38.960938 20.597656 38.925781 22.011719 C 38.90625 22.953125 39.171875 23.925781 39.082031 24.777344 C 38.882812 26.582031 38 27.726562 37.394531 29.074219 C 35.21875 30.730469 33.097656 28.683594 33.710938 25.695312 C 34.476562 24.980469 34.507812 23.527344 35.707031 23.242188 C 35.6875 23.992188 34.945312 24.011719 34.9375 24.777344 C 34.9375 25.566406 36.101562 24.617188 35.859375 25.851562 C 36.328125 25.550781 36.765625 25.21875 37.394531 25.082031 C 37.59375 22.847656 36.875 20.773438 38.3125 19.402344 C 38.136719 17.589844 39.128906 16.945312 39.847656 16.027344 C 40.335938 15.894531 40.320312 16.269531 40.613281 16.335938 Z M 35.707031 26.617188 C 35.949219 26.632812 35.828125 27.007812 36.167969 26.925781 C 35.933594 26.078125 36.886719 26.417969 36.78125 25.695312 C 36.230469 25.8125 35.804688 26.050781 35.707031 26.617188 Z M 35.707031 26.617188 " fill-opacity="1" fill-rule="evenodd"/><g fill="#8c52ff" fill-opacity="1"><g transform="translate(4.169338, 30.923317)"><g><path d="M 4.171875 -0.148438 C 6.742188 0.25 9.941406 0.0234375 11.089844 -2.722656 C 11.613281 -3.996094 11.5625 -5.542969 10.988281 -6.769531 C 10.316406 -8.242188 8.992188 -8.816406 7.84375 -9.816406 C 4.769531 -12.414062 7.992188 -14.886719 10.6875 -15.734375 C 12.210938 -16.234375 11.6875 -17.855469 10.664062 -18.507812 C 9.441406 -19.28125 7.691406 -19.132812 6.367188 -18.730469 C 3.644531 -17.957031 1.574219 -15.734375 1.175781 -12.886719 C 0.773438 -10.015625 2.023438 -7.96875 4.546875 -6.742188 C 5.46875 -6.292969 7.117188 -5.417969 6.320312 -4.121094 C 5.371094 -2.546875 3.523438 -4.097656 2.296875 -4.097656 C 0.847656 -4.121094 -0.226562 -2.945312 0.722656 -1.574219 C 1.421875 -0.574219 3.046875 -0.351562 4.171875 -0.148438 Z M 4.171875 -0.148438 "/></g></g></g><g fill="#8c52ff" fill-opacity="1"><g transform="translate(15.432193, 30.923317)"><g><path d="M 4.144531 -0.0507812 C 5.695312 -0.125 7.242188 -0.101562 8.765625 -0.175781 C 10.039062 -0.25 10.988281 -0.425781 11.488281 -1.671875 C 11.789062 -2.496094 11.964844 -3.996094 11.140625 -4.621094 C 10.214844 -5.292969 8.765625 -4.996094 7.71875 -5.046875 C 6.769531 -5.09375 4.320312 -5.871094 5.746094 -7.191406 C 6.59375 -7.992188 7.917969 -7.042969 8.917969 -7.316406 C 10.015625 -7.640625 10.265625 -8.890625 10.140625 -9.914062 C 10.066406 -10.789062 9.765625 -11.289062 8.917969 -11.613281 C 8.09375 -11.914062 6.367188 -11.363281 5.71875 -11.839844 C 4.84375 -12.460938 5.644531 -13.636719 6.269531 -13.761719 C 7.21875 -13.984375 8.242188 -13.335938 9.242188 -13.734375 C 10.113281 -14.085938 10.566406 -14.910156 10.441406 -15.859375 C 10.265625 -17.183594 9.164062 -17.40625 8.015625 -17.582031 C 6.320312 -17.832031 1.824219 -18.679688 1.074219 -16.582031 C 0.75 -15.683594 0.925781 -14.4375 0.875 -13.511719 C 0.824219 -11.839844 0.75 -10.164062 0.675781 -8.492188 C 0.597656 -7.066406 0.550781 -5.644531 0.472656 -4.222656 C 0.425781 -3.097656 0.101562 -1.472656 1 -0.597656 C 1.824219 0.199219 3.148438 -0.0234375 4.144531 -0.0507812 Z M 4.144531 -0.0507812 "/></g></g></g><g fill="#8c52ff" fill-opacity="1"><g transform="translate(26.794943, 30.923317)"><g><path d="M 1.175781 -0.472656 C 3.546875 2.046875 4.644531 -6.320312 4.894531 -7.34375 C 5.917969 -5.667969 10.015625 2.871094 12.289062 -2.023438 C 13.710938 -5.046875 13.3125 -10.140625 12.835938 -13.238281 C 12.613281 -14.910156 10.839844 -15.609375 9.617188 -14.335938 C 8.339844 -12.988281 8.867188 -10.339844 8.964844 -8.714844 C 7.96875 -10.265625 7.417969 -11.964844 6.46875 -13.488281 C 5.71875 -14.734375 4.097656 -15.785156 2.621094 -15.058594 C 0.273438 -13.886719 0.648438 -8.589844 0.523438 -6.367188 C 0.449219 -4.820312 0.0234375 -1.722656 1.175781 -0.472656 Z M 1.175781 -0.472656 "/></g></g></g><g fill="#8c52ff" fill-opacity="1"><g transform="translate(39.706033, 30.923317)"><g><path d="M 4.171875 -0.148438 C 6.742188 0.25 9.941406 0.0234375 11.089844 -2.722656 C 11.613281 -3.996094 11.5625 -5.542969 10.988281 -6.769531 C 10.316406 -8.242188 8.992188 -8.816406 7.84375 -9.816406 C 4.769531 -12.414062 7.992188 -14.886719 10.6875 -15.734375 C 12.210938 -16.234375 11.6875 -17.855469 10.664062 -18.507812 C 9.441406 -19.28125 7.691406 -19.132812 6.367188 -18.730469 C 3.644531 -17.957031 1.574219 -15.734375 1.175781 -12.886719 C 0.773438 -10.015625 2.023438 -7.96875 4.546875 -6.742188 C 5.46875 -6.292969 7.117188 -5.417969 6.320312 -4.121094 C 5.371094 -2.546875 3.523438 -4.097656 2.296875 -4.097656 C 0.847656 -4.121094 -0.226562 -2.945312 0.722656 -1.574219 C 1.421875 -0.574219 3.046875 -0.351562 4.171875 -0.148438 Z M 4.171875 -0.148438 "/></g></g></g><g fill="#8c52ff" fill-opacity="1"><g transform="translate(50.96889, 30.923317)"><g><path d="M 8.316406 -0.398438 C 12.0625 -1.824219 12.4375 -7.269531 11.8125 -10.640625 C 11.113281 -14.386719 7.691406 -15.910156 4.195312 -14.660156 C -0.300781 -13.0625 -0.0742188 -8.117188 1.074219 -4.320312 C 1.574219 -2.648438 2.097656 -1.199219 3.796875 -0.449219 C 5.167969 0.148438 6.894531 0.125 8.316406 -0.398438 Z M 5.246094 -3.769531 C 4.269531 -4.769531 4.34375 -7.59375 4.746094 -8.867188 C 5.046875 -9.765625 6.59375 -11.015625 7.667969 -10.441406 C 9.089844 -9.640625 8.617188 -6.195312 8.292969 -4.921875 C 7.890625 -3.445312 6.667969 -2.324219 5.246094 -3.769531 Z M 5.246094 -3.769531 "/></g></g></g><g fill="#8c52ff" fill-opacity="1"><g transform="translate(62.656294, 30.923317)"><g><path d="M 13.460938 -0.847656 C 15.558594 -2.921875 13.261719 -6.769531 12.039062 -8.617188 C 14.859375 -11.238281 15.507812 -15.359375 11.988281 -17.65625 C 9.515625 -19.28125 1.875 -20.65625 1.199219 -16.484375 C 0.824219 -14.261719 1.097656 -11.761719 0.949219 -9.464844 C 0.800781 -7.367188 -0.0742188 -4.421875 0.675781 -2.371094 C 1.375 -0.5 3.496094 -0.0234375 4.796875 -1.597656 C 5.445312 -2.398438 5.667969 -3.445312 5.894531 -4.421875 C 5.96875 -4.746094 5.945312 -5.621094 6.167969 -5.871094 C 6.445312 -6.167969 7.992188 -6.292969 8.390625 -6.417969 C 8.742188 -4.570312 10.140625 2.398438 13.460938 -0.847656 Z M 5.769531 -9.539062 C 5.667969 -10.539062 5.070312 -12.414062 5.371094 -13.335938 C 5.570312 -14.011719 6.042969 -13.984375 6.792969 -14.011719 C 8.640625 -14.109375 10.6875 -12.4375 8.515625 -10.914062 C 7.667969 -10.316406 6.71875 -9.914062 5.769531 -9.539062 Z M 5.769531 -9.539062 "/></g></g></g><g fill="#8c52ff" fill-opacity="1"><g transform="translate(76.666202, 30.923317)"><g><path d="M 6.195312 0 C 10.191406 -0.0742188 8.167969 -9.941406 7.867188 -11.9375 C 8.867188 -11.9375 10.765625 -11.738281 11.4375 -12.613281 C 12.136719 -13.488281 11.511719 -14.683594 10.613281 -15.109375 C 9.289062 -15.734375 7.566406 -15.507812 6.144531 -15.585938 C 4.871094 -15.660156 2.597656 -16.285156 1.449219 -15.757812 C 0.449219 -15.308594 0.101562 -14.109375 0.574219 -13.160156 C 1.273438 -11.6875 3.195312 -11.886719 4.546875 -11.964844 C 4.644531 -9.140625 4.34375 -6.394531 4.246094 -3.597656 C 4.171875 -2.171875 4.246094 0.0234375 6.195312 0 Z M 6.195312 0 "/></g></g></g><g fill="#8c52ff" fill-opacity="1"><g transform="translate(87.654349, 30.923317)"><g><path d="M 0.449219 -15.757812 C 1.472656 -12.3125 6.070312 -15.359375 5.269531 -17.882812 C 5.667969 -19.132812 3.472656 -19.605469 2.699219 -19.378906 C 1.25 -18.980469 0.0234375 -17.234375 0.449219 -15.757812 Z M 3.722656 -0.351562 C 4.46875 -0.898438 4.570312 -1.824219 4.746094 -2.671875 C 5.292969 -5.46875 5.917969 -9.390625 4.671875 -12.089844 C 4.097656 -13.3125 2.648438 -14.160156 1.574219 -13.035156 C 0.800781 -12.210938 0.800781 -10.414062 0.699219 -9.390625 C 0.523438 -7.167969 -0.0234375 -3.398438 0.949219 -1.296875 C 1.472656 -0.199219 2.621094 0.425781 3.722656 -0.351562 Z M 3.722656 -0.351562 "/></g></g></g><g fill="#8c52ff" fill-opacity="1"><g transform="translate(92.673896, 30.923317)"><g><path d="M 5.019531 -0.574219 C 6.617188 0.824219 8.015625 -0.597656 8.941406 -1.949219 C 10.339844 -3.921875 15.984375 -11.3125 12.613281 -13.488281 C 9.539062 -15.460938 7.367188 -7.09375 6.667969 -5.394531 C 6.167969 -6.816406 4.144531 -14.910156 1.449219 -13.761719 C -1.421875 -12.539062 2.296875 -6.019531 2.996094 -4.519531 C 3.570312 -3.246094 3.945312 -1.546875 5.019531 -0.574219 Z M 5.019531 -0.574219 "/></g></g></g><g fill="#8c52ff" fill-opacity="1"><g transform="translate(105.959587, 30.923317)"><g><path d="M 0.449219 -15.757812 C 1.472656 -12.3125 6.070312 -15.359375 5.269531 -17.882812 C 5.667969 -19.132812 3.472656 -19.605469 2.699219 -19.378906 C 1.25 -18.980469 0.0234375 -17.234375 0.449219 -15.757812 Z M 3.722656 -0.351562 C 4.46875 -0.898438 4.570312 -1.824219 4.746094 -2.671875 C 5.292969 -5.46875 5.917969 -9.390625 4.671875 -12.089844 C 4.097656 -13.3125 2.648438 -14.160156 1.574219 -13.035156 C 0.800781 -12.210938 0.800781 -10.414062 0.699219 -9.390625 C 0.523438 -7.167969 -0.0234375 -3.398438 0.949219 -1.296875 C 1.472656 -0.199219 2.621094 0.425781 3.722656 -0.351562 Z M 3.722656 -0.351562 "/></g></g></g><g fill="#8c52ff" fill-opacity="1"><g transform="translate(110.979134, 30.923317)"><g><path d="M 6.195312 0 C 10.191406 -0.0742188 8.167969 -9.941406 7.867188 -11.9375 C 8.867188 -11.9375 10.765625 -11.738281 11.4375 -12.613281 C 12.136719 -13.488281 11.511719 -14.683594 10.613281 -15.109375 C 9.289062 -15.734375 7.566406 -15.507812 6.144531 -15.585938 C 4.871094 -15.660156 2.597656 -16.285156 1.449219 -15.757812 C 0.449219 -15.308594 0.101562 -14.109375 0.574219 -13.160156 C 1.273438 -11.6875 3.195312 -11.886719 4.546875 -11.964844 C 4.644531 -9.140625 4.34375 -6.394531 4.246094 -3.597656 C 4.171875 -2.171875 4.246094 0.0234375 6.195312 0 Z M 6.195312 0 "/></g></g></g><g fill="#8c52ff" fill-opacity="1"><g transform="translate(121.967281, 30.923317)"><g><path d="M 7.09375 -0.699219 C 8.441406 -1.996094 8.292969 -4.019531 8.09375 -6.570312 C 7.890625 -8.167969 7.941406 -8.566406 8.839844 -9.863281 C 9.414062 -10.714844 9.988281 -11.589844 10.441406 -12.539062 C 10.914062 -13.5625 11.8125 -15.683594 10.363281 -16.359375 C 8.117188 -17.433594 6.792969 -13.460938 5.945312 -12.0625 C 5.21875 -13.636719 4.96875 -15.960938 3.246094 -16.808594 C 1.222656 -17.808594 0 -16.082031 0.472656 -14.234375 C 0.972656 -12.1875 2.820312 -10.566406 3.070312 -8.566406 C 3.296875 -6.542969 2.347656 -2.898438 3.523438 -1.097656 C 4.46875 0.324219 6.46875 0.449219 7.09375 -0.699219 Z M 7.09375 -0.699219 "/></g></g></g><g fill="#8c52ff" fill-opacity="1"><g transform="translate(132.381046, 30.923317)"><g><path d="M 0.5 -0.722656 C 1.296875 1.199219 4.296875 -1.199219 2.996094 -2.421875 C 1.996094 -3.921875 -0.125 -2.199219 0.5 -0.722656 Z M 0.5 -0.722656 "/></g></g></g><g fill="#fd7f32" fill-opacity="1"><g transform="translate(3.418772, 30.172751)"><g><path d="M 4.171875 -0.148438 C 6.742188 0.25 9.941406 0.0234375 11.089844 -2.722656 C 11.613281 -3.996094 11.5625 -5.542969 10.988281 -6.769531 C 10.316406 -8.242188 8.992188 -8.816406 7.84375 -9.816406 C 4.769531 -12.414062 7.992188 -14.886719 10.6875 -15.734375 C 12.210938 -16.234375 11.6875 -17.855469 10.664062 -18.507812 C 9.441406 -19.28125 7.691406 -19.132812 6.367188 -18.730469 C 3.644531 -17.957031 1.574219 -15.734375 1.175781 -12.886719 C 0.773438 -10.015625 2.023438 -7.96875 4.546875 -6.742188 C 5.46875 -6.292969 7.117188 -5.417969 6.320312 -4.121094 C 5.371094 -2.546875 3.523438 -4.097656 2.296875 -4.097656 C 0.847656 -4.121094 -0.226562 -2.945312 0.722656 -1.574219 C 1.421875 -0.574219 3.046875 -0.351562 4.171875 -0.148438 Z M 4.171875 -0.148438 "/></g></g></g><g fill="#fd7f32" fill-opacity="1"><g transform="translate(14.681627, 30.172751)"><g><path d="M 4.144531 -0.0507812 C 5.695312 -0.125 7.242188 -0.101562 8.765625 -0.175781 C 10.039062 -0.25 10.988281 -0.425781 11.488281 -1.671875 C 11.789062 -2.496094 11.964844 -3.996094 11.140625 -4.621094 C 10.214844 -5.292969 8.765625 -4.996094 7.71875 -5.046875 C 6.769531 -5.09375 4.320312 -5.871094 5.746094 -7.191406 C 6.59375 -7.992188 7.917969 -7.042969 8.917969 -7.316406 C 10.015625 -7.640625 10.265625 -8.890625 10.140625 -9.914062 C 10.066406 -10.789062 9.765625 -11.289062 8.917969 -11.613281 C 8.09375 -11.914062 6.367188 -11.363281 5.71875 -11.839844 C 4.84375 -12.460938 5.644531 -13.636719 6.269531 -13.761719 C 7.21875 -13.984375 8.242188 -13.335938 9.242188 -13.734375 C 10.113281 -14.085938 10.566406 -14.910156 10.441406 -15.859375 C 10.265625 -17.183594 9.164062 -17.40625 8.015625 -17.582031 C 6.320312 -17.832031 1.824219 -18.679688 1.074219 -16.582031 C 0.75 -15.683594 0.925781 -14.4375 0.875 -13.511719 C 0.824219 -11.839844 0.75 -10.164062 0.675781 -8.492188 C 0.597656 -7.066406 0.550781 -5.644531 0.472656 -4.222656 C 0.425781 -3.097656 0.101562 -1.472656 1 -0.597656 C 1.824219 0.199219 3.148438 -0.0234375 4.144531 -0.0507812 Z M 4.144531 -0.0507812 "/></g></g></g><g fill="#fd7f32" fill-opacity="1"><g transform="translate(26.044377, 30.172751)"><g><path d="M 1.175781 -0.472656 C 3.546875 2.046875 4.644531 -6.320312 4.894531 -7.34375 C 5.917969 -5.667969 10.015625 2.871094 12.289062 -2.023438 C 13.710938 -5.046875 13.3125 -10.140625 12.835938 -13.238281 C 12.613281 -14.910156 10.839844 -15.609375 9.617188 -14.335938 C 8.339844 -12.988281 8.867188 -10.339844 8.964844 -8.714844 C 7.96875 -10.265625 7.417969 -11.964844 6.46875 -13.488281 C 5.71875 -14.734375 4.097656 -15.785156 2.621094 -15.058594 C 0.273438 -13.886719 0.648438 -8.589844 0.523438 -6.367188 C 0.449219 -4.820312 0.0234375 -1.722656 1.175781 -0.472656 Z M 1.175781 -0.472656 "/></g></g></g><g fill="#fd7f32" fill-opacity="1"><g transform="translate(38.955467, 30.172751)"><g><path d="M 4.171875 -0.148438 C 6.742188 0.25 9.941406 0.0234375 11.089844 -2.722656 C 11.613281 -3.996094 11.5625 -5.542969 10.988281 -6.769531 C 10.316406 -8.242188 8.992188 -8.816406 7.84375 -9.816406 C 4.769531 -12.414062 7.992188 -14.886719 10.6875 -15.734375 C 12.210938 -16.234375 11.6875 -17.855469 10.664062 -18.507812 C 9.441406 -19.28125 7.691406 -19.132812 6.367188 -18.730469 C 3.644531 -17.957031 1.574219 -15.734375 1.175781 -12.886719 C 0.773438 -10.015625 2.023438 -7.96875 4.546875 -6.742188 C 5.46875 -6.292969 7.117188 -5.417969 6.320312 -4.121094 C 5.371094 -2.546875 3.523438 -4.097656 2.296875 -4.097656 C 0.847656 -4.121094 -0.226562 -2.945312 0.722656 -1.574219 C 1.421875 -0.574219 3.046875 -0.351562 4.171875 -0.148438 Z M 4.171875 -0.148438 "/></g></g></g><g fill="#fd7f32" fill-opacity="1"><g transform="translate(50.218324, 30.172751)"><g><path d="M 8.316406 -0.398438 C 12.0625 -1.824219 12.4375 -7.269531 11.8125 -10.640625 C 11.113281 -14.386719 7.691406 -15.910156 4.195312 -14.660156 C -0.300781 -13.0625 -0.0742188 -8.117188 1.074219 -4.320312 C 1.574219 -2.648438 2.097656 -1.199219 3.796875 -0.449219 C 5.167969 0.148438 6.894531 0.125 8.316406 -0.398438 Z M 5.246094 -3.769531 C 4.269531 -4.769531 4.34375 -7.59375 4.746094 -8.867188 C 5.046875 -9.765625 6.59375 -11.015625 7.667969 -10.441406 C 9.089844 -9.640625 8.617188 -6.195312 8.292969 -4.921875 C 7.890625 -3.445312 6.667969 -2.324219 5.246094 -3.769531 Z M 5.246094 -3.769531 "/></g></g></g><g fill="#fd7f32" fill-opacity="1"><g transform="translate(61.905728, 30.172751)"><g><path d="M 13.460938 -0.847656 C 15.558594 -2.921875 13.261719 -6.769531 12.039062 -8.617188 C 14.859375 -11.238281 15.507812 -15.359375 11.988281 -17.65625 C 9.515625 -19.28125 1.875 -20.65625 1.199219 -16.484375 C 0.824219 -14.261719 1.097656 -11.761719 0.949219 -9.464844 C 0.800781 -7.367188 -0.0742188 -4.421875 0.675781 -2.371094 C 1.375 -0.5 3.496094 -0.0234375 4.796875 -1.597656 C 5.445312 -2.398438 5.667969 -3.445312 5.894531 -4.421875 C 5.96875 -4.746094 5.945312 -5.621094 6.167969 -5.871094 C 6.445312 -6.167969 7.992188 -6.292969 8.390625 -6.417969 C 8.742188 -4.570312 10.140625 2.398438 13.460938 -0.847656 Z M 5.769531 -9.539062 C 5.667969 -10.539062 5.070312 -12.414062 5.371094 -13.335938 C 5.570312 -14.011719 6.042969 -13.984375 6.792969 -14.011719 C 8.640625 -14.109375 10.6875 -12.4375 8.515625 -10.914062 C 7.667969 -10.316406 6.71875 -9.914062 5.769531 -9.539062 Z M 5.769531 -9.539062 "/></g></g></g><g fill="#fd7f32" fill-opacity="1"><g transform="translate(75.915636, 30.172751)"><g><path d="M 6.195312 0 C 10.191406 -0.0742188 8.167969 -9.941406 7.867188 -11.9375 C 8.867188 -11.9375 10.765625 -11.738281 11.4375 -12.613281 C 12.136719 -13.488281 11.511719 -14.683594 10.613281 -15.109375 C 9.289062 -15.734375 7.566406 -15.507812 6.144531 -15.585938 C 4.871094 -15.660156 2.597656 -16.285156 1.449219 -15.757812 C 0.449219 -15.308594 0.101562 -14.109375 0.574219 -13.160156 C 1.273438 -11.6875 3.195312 -11.886719 4.546875 -11.964844 C 4.644531 -9.140625 4.34375 -6.394531 4.246094 -3.597656 C 4.171875 -2.171875 4.246094 0.0234375 6.195312 0 Z M 6.195312 0 "/></g></g></g><g fill="#fd7f32" fill-opacity="1"><g transform="translate(86.903783, 30.172751)"><g><path d="M 0.449219 -15.757812 C 1.472656 -12.3125 6.070312 -15.359375 5.269531 -17.882812 C 5.667969 -19.132812 3.472656 -19.605469 2.699219 -19.378906 C 1.25 -18.980469 0.0234375 -17.234375 0.449219 -15.757812 Z M 3.722656 -0.351562 C 4.46875 -0.898438 4.570312 -1.824219 4.746094 -2.671875 C 5.292969 -5.46875 5.917969 -9.390625 4.671875 -12.089844 C 4.097656 -13.3125 2.648438 -14.160156 1.574219 -13.035156 C 0.800781 -12.210938 0.800781 -10.414062 0.699219 -9.390625 C 0.523438 -7.167969 -0.0234375 -3.398438 0.949219 -1.296875 C 1.472656 -0.199219 2.621094 0.425781 3.722656 -0.351562 Z M 3.722656 -0.351562 "/></g></g></g><g fill="#fd7f32" fill-opacity="1"><g transform="translate(91.92333, 30.172751)"><g><path d="M 5.019531 -0.574219 C 6.617188 0.824219 8.015625 -0.597656 8.941406 -1.949219 C 10.339844 -3.921875 15.984375 -11.3125 12.613281 -13.488281 C 9.539062 -15.460938 7.367188 -7.09375 6.667969 -5.394531 C 6.167969 -6.816406 4.144531 -14.910156 1.449219 -13.761719 C -1.421875 -12.539062 2.296875 -6.019531 2.996094 -4.519531 C 3.570312 -3.246094 3.945312 -1.546875 5.019531 -0.574219 Z M 5.019531 -0.574219 "/></g></g></g><g fill="#fd7f32" fill-opacity="1"><g transform="translate(105.20902, 30.172751)"><g><path d="M 0.449219 -15.757812 C 1.472656 -12.3125 6.070312 -15.359375 5.269531 -17.882812 C 5.667969 -19.132812 3.472656 -19.605469 2.699219 -19.378906 C 1.25 -18.980469 0.0234375 -17.234375 0.449219 -15.757812 Z M 3.722656 -0.351562 C 4.46875 -0.898438 4.570312 -1.824219 4.746094 -2.671875 C 5.292969 -5.46875 5.917969 -9.390625 4.671875 -12.089844 C 4.097656 -13.3125 2.648438 -14.160156 1.574219 -13.035156 C 0.800781 -12.210938 0.800781 -10.414062 0.699219 -9.390625 C 0.523438 -7.167969 -0.0234375 -3.398438 0.949219 -1.296875 C 1.472656 -0.199219 2.621094 0.425781 3.722656 -0.351562 Z M 3.722656 -0.351562 "/></g></g></g><g fill="#fd7f32" fill-opacity="1"><g transform="translate(110.228568, 30.172751)"><g><path d="M 6.195312 0 C 10.191406 -0.0742188 8.167969 -9.941406 7.867188 -11.9375 C 8.867188 -11.9375 10.765625 -11.738281 11.4375 -12.613281 C 12.136719 -13.488281 11.511719 -14.683594 10.613281 -15.109375 C 9.289062 -15.734375 7.566406 -15.507812 6.144531 -15.585938 C 4.871094 -15.660156 2.597656 -16.285156 1.449219 -15.757812 C 0.449219 -15.308594 0.101562 -14.109375 0.574219 -13.160156 C 1.273438 -11.6875 3.195312 -11.886719 4.546875 -11.964844 C 4.644531 -9.140625 4.34375 -6.394531 4.246094 -3.597656 C 4.171875 -2.171875 4.246094 0.0234375 6.195312 0 Z M 6.195312 0 "/></g></g></g><g fill="#fd7f32" fill-opacity="1"><g transform="translate(121.216715, 30.172751)"><g><path d="M 7.09375 -0.699219 C 8.441406 -1.996094 8.292969 -4.019531 8.09375 -6.570312 C 7.890625 -8.167969 7.941406 -8.566406 8.839844 -9.863281 C 9.414062 -10.714844 9.988281 -11.589844 10.441406 -12.539062 C 10.914062 -13.5625 11.8125 -15.683594 10.363281 -16.359375 C 8.117188 -17.433594 6.792969 -13.460938 5.945312 -12.0625 C 5.21875 -13.636719 4.96875 -15.960938 3.246094 -16.808594 C 1.222656 -17.808594 0 -16.082031 0.472656 -14.234375 C 0.972656 -12.1875 2.820312 -10.566406 3.070312 -8.566406 C 3.296875 -6.542969 2.347656 -2.898438 3.523438 -1.097656 C 4.46875 0.324219 6.46875 0.449219 7.09375 -0.699219 Z M 7.09375 -0.699219 "/></g></g></g><g fill="#fd7f32" fill-opacity="1"><g transform="translate(131.63048, 30.172751)"><g><path d="M 0.5 -0.722656 C 1.296875 1.199219 4.296875 -1.199219 2.996094 -2.421875 C 1.996094 -3.921875 -0.125 -2.199219 0.5 -0.722656 Z M 0.5 -0.722656 "/></g></g></g></svg>